:FULLY-SPECIFIED
:FORCE-ALL-JOINTS-BE-3DOF
:DEGREES
374
root 6.17353 16.5112 -15.8274 8.84555 -16.576 -5.89482
lfemur -40.3666 19.5146 -9.72536
ltibia 65.2123 -0 0
lfoot -10.0382 0.624359 0.131957
ltoes 14.5276 -0 0
rfemur -23.7536 -4.52976 30.8671
rtibia 41.4394 -0 0
rfoot -21.0716 0.504211 0.000632783
rtoes 16.7626 -0 0
lowerback 4.78152 1.48915 3.08624
upperback 2.54941 2.10561 1.03401
thorax 0.0443326 1.06874 -0.755524
lowerneck -7.64634 -1.42307 2.84864
upperneck -0.521305 -2.20534 2.43004
head 1.11698 -1.05697 0.205011
lclavicle -4.96962e-16 2.8625e-14 0
lhumerus -41.3117 -22.241 95.5086
lradius 57.1115 -0 0
lwrist 20.4491 0 0
lhand -18.9524 4.1752 -0.000195673
lfingers 7.12502 -0 0
lthumb 7.35107 34.0272 -0.00021942
rclavicle -4.96962e-16 2.8625e-14 0
rhumerus -38.0727 12.3951 -93.5018
rradius 62.1023 -0 0
rwrist 7.9191 0 0
rhand -11.2083 -21.2053 -0.014267
rfingers 7.12502 -0 0
rthumb 14.8195 -50.6496 -0.0125303
375
root 6.12597 16.5132 -15.6874 8.85789 -17.2313 -6.04262
lfemur -40.4465 18.6465 -9.65831
ltibia 62.5769 -0 0
lfoot -9.78829 1.7259 0.143976
ltoes 14.5853 -0 0
rfemur -22.8736 -4.10212 30.9151
rtibia 41.0864 -0 0
rfoot -21.336 0.499225 0.000690315
rtoes 16.8104 -0 0
lowerback 4.71921 1.62103 3.22512
upperback 2.51427 2.28496 0.980862
thorax 0.059999 1.15966 -0.892908
lowerneck -7.54959 -1.34661 3.00033
upperneck -0.409458 -2.11484 2.36111
head 1.13425 -1.01106 0.161417
lclavicle -4.96962e-16 2.8625e-14 0
lhumerus -41.2729 -22.1889 95.2409
lradius 56.8257 -0 0
lwrist 20.2375 0 0
lhand -18.9086 4.16591 -0.000213462
lfingers 7.12502 -0 0
lthumb 7.39342 34.0164 -0.000239367
rclavicle -4.96962e-16 2.8625e-14 0
rhumerus -38.2542 12.6887 -93.6107
rradius 61.5884 -0 0
rwrist 8.16413 0 0
rhand -11.4051 -21.0543 -0.0155641
rfingers 7.12502 -0 0
rthumb 14.6299 -50.5119 -0.0136695
376
root 6.07841 16.5152 -15.5473 8.87205 -17.8866 -6.1911
lfemur -40.5271 17.7784 -9.59031
ltibia 59.9415 -0 0
lfoot -9.53823 2.82749 0.15119
ltoes 14.643 -0 0
rfemur -21.9937 -3.67525 30.9696
rtibia 40.7335 -0 0
rfoot -21.6004 0.494238 0.000724834
rtoes 16.8582 -0 0
lowerback 4.65721 1.75306 3.36386
upperback 2.47897 2.46429 0.927595
thorax 0.0754478 1.25062 -1.03027
lowerneck -7.45264 -1.27041 3.15214
upperneck -0.297725 -2.02421 2.29236
head 1.15148 -0.965143 0.117836
lclavicle -4.96962e-16 2.8625e-14 0
lhumerus -41.2345 -22.1366 94.9734
lradius 56.5399 -0 0
lwrist 20.0258 0 0
lhand -18.8647 4.15662 -0.000224135
lfingers 7.12502 -0 0
lthumb 7.43578 34.0056 -0.000251335
rclavicle -4.96962e-16 2.8625e-14 0
rhumerus -38.4364 12.982 -93.7206
rradius 61.0745 -0 0
rwrist 8.40916 0 0
rhand -11.6019 -20.9032 -0.0163424
rfingers 7.12502 -0 0
rthumb 14.4403 -50.3742 -0.0143531
377
root 6.03085 16.5172 -15.4072 8.88806 -18.5419 -6.34031
lfemur -40.6084 16.9104 -9.52136
ltibia 57.306 -0 0
lfoot -9.28809 3.9291 0.153595
ltoes 14.7007 -0 0
rfemur -21.1138 -3.24928 31.0307
rtibia 40.3805 -0 0
rfoot -21.8648 0.489251 0.000736341
rtoes 16.906 -0 0
lowerback 4.59553 1.88523 3.50247
upperback 2.44349 2.64358 0.874211
thorax 0.090679 1.34161 -1.16761
lowerneck -7.3555 -1.19447 3.30408
upperneck -0.186108 -1.93344 2.22379
head 1.16868 -0.91921 0.0742702
lclavicle -4.96962e-16 2.8625e-14 0
lhumerus -41.1963 -22.0842 94.7061
lradius 56.254 -0 0
lwrist 19.8141 0 0
lhand -18.8208 4.14733 -0.000227693
lfingers 7.12502 -0 0
lthumb 7.47813 33.9949 -0.000255325
rclavicle -4.96962e-16 2.8625e-14 0
rhumerus -38.6195 13.2749 -93.8317
rradius 60.5605 -0 0
rwrist 8.65418 0 0
rhand -11.7986 -20.7521 -0.0166018
rfingers 7.12502 -0 0
rthumb 14.2507 -50.2365 -0.0145809
378
root 5.9833 16.5191 -15.2672 8.90593 -19.1971 -6.49029
lfemur -40.6904 16.0425 -9.45144
ltibia 54.6706 -0 0
lfoot -9.03794 5.03071 0.15119
ltoes 14.7585 -0 0
rfemur -20.2337 -2.82429 31.0983
rtibia 40.0276 -0 0
rfoot -22.1293 0.484264 0.000724834
rtoes 16.9538 -0 0
lowerback 4.53416 2.01756 3.64095
upperback 2.40784 2.82284 0.820708
thorax 0.105692 1.43264 -1.30494
lowerneck -7.25815 -1.11878 3.45614
upperneck -0.0746049 -1.84255 2.1554
head 1.18584 -0.873263 0.0307185
lclavicle -4.96962e-16 2.8625e-14 0
lhumerus -41.1584 -22.0316 94.4388
lradius 55.9682 -0 0
lwrist 19.6025 0 0
lhand -18.7769 4.13803 -0.000224135
lfingers 7.12502 -0 0
lthumb 7.52048 33.9841 -0.000251335
rclavicle -4.96962e-16 2.8625e-14 0
rhumerus -38.8034 13.5675 -93.9438
rradius 60.0466 -0 0
rwrist 8.89921 0 0
rhand -11.9954 -20.601 -0.0163424
rfingers 7.12502 -0 0
rthumb 14.061 -50.0988 -0.0143531
379
root 5.93574 16.5211 -15.1271 8.9257 -19.8522 -6.64111
lfemur -40.7731 15.1747 -9.38053
ltibia 52.0352 -0 0
lfoot -8.78788 6.1323 0.143976
ltoes 14.8162 -0 0
rfemur -19.3535 -2.40038 31.1724
rtibia 39.6747 -0 0
rfoot -22.3937 0.479277 0.000690315
rtoes 17.0016 -0 0
lowerback 4.4731 2.15003 3.7793
upperback 2.37202 3.00206 0.767084
thorax 0.120488 1.5237 -1.44225
lowerneck -7.16061 -1.04336 3.60832
upperneck 0.0367837 -1.75152 2.08719
head 1.20297 -0.827304 -0.0128189
lclavicle -4.96962e-16 2.8625e-14 0
lhumerus -41.1208 -21.9788 94.1717
lradius 55.6824 -0 0
lwrist 19.3908 0 0
lhand -18.733 4.12874 -0.000213462
lfingers 7.12502 -0 0
lthumb 7.56284 33.9733 -0.000239367
rclavicle -4.96962e-16 2.8625e-14 0
rhumerus -38.9881 13.8597 -94.057
rradius 59.5327 -0 0
rwrist 9.14424 0 0
rhand -12.1922 -20.4499 -0.0155641
rfingers 7.12502 -0 0
rthumb 13.8714 -49.9611 -0.0136695
380
root 5.88818 16.5231 -14.9871 8.94739 -20.5073 -6.7928
lfemur -40.8566 14.3069 -9.30861
ltibia 49.3998 -0 0
lfoot -8.53801 7.23384 0.131957
ltoes 14.8739 -0 0
rfemur -18.4729 -1.97767 31.253
rtibia 39.3217 -0 0
rfoot -22.6581 0.474291 0.000632783
rtoes 17.0494 -0 0
lowerback 4.41237 2.28265 3.91751
upperback 2.33603 3.18126 0.713339
thorax 0.135066 1.6148 -1.57953
lowerneck -7.06286 -0.968189 3.76063
upperneck 0.148059 -1.66035 2.01916
head 1.22007 -0.781331 -0.056342
lclavicle -4.96962e-16 2.8625e-14 0
lhumerus -41.0834 -21.9259 93.9048
lradius 55.3966 -0 0
lwrist 19.1792 0 0
lhand -18.6892 4.11945 -0.000195673
lfingers 7.12502 -0 0
lthumb 7.60519 33.9625 -0.00021942
rclavicle -4.96962e-16 2.8625e-14 0
rhumerus -39.1736 14.1515 -94.1713
rradius 59.0188 -0 0
rwrist 9.38927 0 0
rhand -12.389 -20.2989 -0.014267
rfingers 7.12502 -0 0
rthumb 13.6818 -49.8234 -0.0125303
381
root 5.84062 16.5251 -14.847 8.97104 -21.1624 -6.94542
lfemur -40.941 13.4393 -9.23565
ltibia 46.7644 -0 0
lfoot -8.28842 8.33532 0.115136
ltoes 14.9316 -0 0
rfemur -17.592 -1.55624 31.34
rtibia 38.9688 -0 0
rfoot -22.9225 0.469305 0.00055224
rtoes 17.0972 -0 0
lowerback 4.35194 2.41542 4.05561
upperback 2.29986 3.36041 0.659472
thorax 0.149427 1.70594 -1.71681
lowerneck -6.96492 -0.893282 3.91307
upperneck 0.25922 -1.56906 1.95131
head 1.23713 -0.735345 -0.0998509
lclavicle -4.96962e-16 2.8625e-14 0
lhumerus -41.0463 -21.8728 93.6379
lradius 55.1107 -0 0
lwrist 18.9675 0 0
lhand -18.6453 4.11016 -0.000170769
lfingers 7.12502 -0 0
lthumb 7.64755 33.9517 -0.000191493
rclavicle -4.96962e-16 2.8625e-14 0
rhumerus -39.36 14.443 -94.2868
rradius 58.5049 -0 0
rwrist 9.63429 0 0
rhand -12.5857 -20.1478 -0.0124511
rfingers 7.12502 -0 0
rthumb 13.4922 -49.6857 -0.0109354
382
root 5.79306 16.5271 -14.707 8.99668 -21.8174 -7.09901
lfemur -41.0262 12.5718 -9.16164
ltibia 44.129 -0 0
lfoot -8.0392 9.43672 0.0935208
ltoes 14.9893 -0 0
rfemur -16.7105 -1.1362 31.4335
rtibia 38.6158 -0 0
rfoot -23.1869 0.464319 0.000448688
rtoes 17.1451 -0 0
lowerback 4.29183 2.54833 4.19357
upperback 2.26351 3.53954 0.605481
thorax 0.163569 1.7971 -1.85406
lowerneck -6.86679 -0.818637 4.06563
upperneck 0.370269 -1.47763 1.88365
head 1.25415 -0.689347 -0.143346
lclavicle -4.96962e-16 2.8625e-14 0
lhumerus -41.0096 -21.8196 93.3713
lradius 54.8249 -0 0
lwrist 18.7559 0 0
lhand -18.6014 4.10087 -0.00013875
lfingers 7.12502 -0 0
lthumb 7.6899 33.9409 -0.000155588
rclavicle -4.96962e-16 2.8625e-14 0
rhumerus -39.5472 14.7342 -94.4034
rradius 57.991 -0 0
rwrist 9.87932 0 0
rhand -12.7825 -19.9967 -0.0101163
rfingers 7.12502 -0 0
rthumb 13.3026 -49.548 -0.00888493
383
root 5.7455 16.5291 -14.5669 9.02433 -22.4723 -7.25365
lfemur -41.1122 11.7045 -9.08656
ltibia 41.4936 -0 0
lfoot -7.79044 10.538 0.0671192
ltoes 15.0471 -0 0
rfemur -15.8285 -0.717645 31.5335
rtibia 38.2629 -0 0
rfoot -23.4513 0.459334 0.000322129
rtoes 17.1929 -0 0
lowerback 4.23204 2.68139 4.33141
upperback 2.22699 3.71863 0.551366
thorax 0.177494 1.88831 -1.9913
lowerneck -6.76845 -0.744252 4.21831
upperneck 0.481205 -1.38607 1.81616
head 1.27114 -0.643335 -0.186827
lclavicle -4.96962e-16 2.8625e-14 0
lhumerus -40.9731 -21.7662 93.1047
lradius 54.5391 -0 0
lwrist 18.5442 0 0
lhand -18.5575 4.09157 -9.96154e-05
lfingers 7.12502 -0 0
lthumb 7.73225 33.9301 -0.000111704
rclavicle -4.96962e-16 2.8625e-14 0
rhumerus -39.7353 15.0249 -94.5212
rradius 57.477 -0 0
rwrist 10.1243 0 0
rhand -12.9792 -19.8457 -0.00726289
rfingers 7.12502 -0 0
rthumb 13.1131 -49.4103 -0.00637883
